<svg width="1920" height="1360" viewBox="0 0 1920 1360" fill="none" xmlns="http://www.w3.org/2000/svg">
<path d="M-467.551 32.5963C-224.213 307.814 -67.2372 -121.404 203.414 54.9367C474.066 231.278 652.384 -103.552 839.041 54.9367C1025.7 213.425 1206.02 -126.34 1406.53 54.9367C1607.03 236.214 1750.43 -78.6358 1916.17 54.9367V271.964H-467.551L-467.551 32.5963Z" fill="#83E5FF"/>
<rect x="-466.31" y="214.913" width="2407.31" height="861.971" fill="#83E5FF"/>
<path d="M1923.9 1285.98C1665.46 979.918 1561.07 1531.78 1287.36 1271.06C1013.65 1010.35 845.334 1467.4 630.959 1276.77C416.584 1086.15 275.805 1482.94 63.2956 1281.71C-149.213 1080.48 -287.101 1434.39 -462.609 1286.28L-463.085 1009.8L1923.93 1009.5L1923.9 1285.98Z" fill="#83E5FF"/>
</svg>
