<svg width="640" height="2498" viewBox="0 0 640 2498" fill="none" xmlns="http://www.w3.org/2000/svg">
<mask id="mask0_323_1667" style="mask-type:alpha" maskUnits="userSpaceOnUse" x="-7" y="0" width="647" height="2498">
<rect x="-7" width="647" height="2498" fill="#C4C4C4"/>
</mask>
<g mask="url(#mask0_323_1667)">
<path d="M1209.24 2452.53C1050.68 2331.72 1054.89 2509.96 878.145 2430.47C701.396 2350.99 643.627 2521.66 536.242 2436.25C428.857 2350.84 322.537 2519.1 212.234 2441.72C101.931 2364.35 35.4443 2512.43 -52.4982 2446.2L-52.9661 2221.2L1209.7 2199.87L1209.24 2452.53Z" fill="#83E5FF"/>
<path d="M-6.96295 92.103H639.537V2249.1H-6.96295V92.103Z" fill="#83E5FF"/>
<path d="M-451.643 31.745C-314.999 160.078 -317.363 -26.3522 -164.643 58.9992C-11.9236 144.351 39.412 -33.3839 131.929 57.2845C224.446 147.953 321.344 -40.1674 412.978 55.6595C504.613 151.486 566.818 -16.0376 642.611 54.3318L641.392 289.614L-453.868 295.947L-451.643 31.745Z" fill="#83E5FF"/>
</g>
</svg>
