<svg width="639" height="388" viewBox="0 0 639 388" fill="none" xmlns="http://www.w3.org/2000/svg">
<mask id="mask0_295_1650" style="mask-type:alpha" maskUnits="userSpaceOnUse" x="0" y="0" width="640" height="388">
<rect width="640" height="388" fill="#C4C4C4"/>
</mask>
<g mask="url(#mask0_295_1650)">
<path d="M1204.58 330.82C1080.17 161.791 971.469 480.087 839.623 336.23C707.776 192.373 625.855 446.081 522.572 340.93C419.289 235.779 350.75 456.025 248.383 344.994C146.015 233.964 78.9324 430.437 -5.63592 348.76L-6.99973 79.94L1203.21 62L1204.58 330.82Z" fill="#8704BF"/>
<path d="M-17.7531 -2.75915C103.16 124.974 101.17 -59.9784 236.34 25.1656C371.51 110.31 417.061 -65.8508 498.925 24.3817C580.789 114.614 666.685 -71.7084 747.765 23.6388C828.845 118.986 884.013 -47.0116 951.082 23.0318L949.872 256.437L-19.8691 259.332L-17.7531 -2.75915Z" fill="#8704BF"/>
</g>
</svg>
