<svg width="2386" height="1088" viewBox="0 0 2386 1088" fill="none" xmlns="http://www.w3.org/2000/svg">
<path d="M0.449034 32.5051C243.787 307.723 400.763 -121.495 671.414 54.8455C942.066 231.186 1120.38 -103.643 1307.04 54.8455C1493.7 213.334 1674.02 -126.431 1874.53 54.8455C2075.03 236.122 2218.43 -78.727 2384.17 54.8455V271.873H0.44873L0.449034 32.5051Z" fill="#83E5FF"/>
<rect x="3" y="168" width="2381" height="570" fill="#83E5FF"/>
<path d="M2382.94 1013.91C2125.14 707.839 2021.03 1259.7 1747.99 998.976C1474.96 738.255 1307.07 1195.3 1093.23 1004.67C879.386 814.038 738.966 1210.83 526.983 1009.6C315 808.363 177.463 1162.27 2.39043 1014.16L1.9091 737.669L2382.97 737.421L2382.94 1013.91Z" fill="#83E5FF"/>
</svg>
