<svg width="1920" height="432" viewBox="0 0 1920 432" fill="none" xmlns="http://www.w3.org/2000/svg">
<path d="M0.000244141 25C196 246.906 357 -99.1693 575 43.0129C793 185.195 911 -95.5313 1074 43.0128C1237 181.557 1348 -103.149 1509.5 43.0128C1671 189.175 1786.5 -64.6855 1920 43.0128V196L0 218L0.000244141 25Z" fill="#8704BF"/>
<path d="M1927.3 376.335C1722.11 129.531 1601.43 569.982 1384.12 359.742C1166.81 149.503 1033.24 518.002 863.044 364.279C692.846 210.556 581.129 530.473 412.41 368.203C243.692 205.933 134.266 491.274 -5.07374 371.838L-5.47986 148.907L1936.35 132.516L1927.3 376.335Z" fill="#8704BF"/>
</svg>
