<svg width="1476" height="493" viewBox="0 0 1476 493" fill="none" xmlns="http://www.w3.org/2000/svg">
<mask id="mask0_296_1658" style="mask-type:alpha" maskUnits="userSpaceOnUse" x="0" y="0" width="1476" height="493">
<rect width="1476" height="493" fill="#C4C4C4"/>
</mask>
<g mask="url(#mask0_296_1658)">
<path d="M-27.9992 61.0826C128.169 230.464 256.45 -33.6964 430.148 74.8319C603.845 183.36 697.865 -30.9196 827.74 74.8319C957.615 180.583 1046.06 -36.7343 1174.74 74.8319C1303.42 186.398 1395.44 -7.3748 1501.81 74.8319V191.608L-27.9994 208.401L-27.9992 61.0826Z" fill="#8704BF"/>
<path d="M1502.06 447.696C1340.49 259.293 1238.4 599.067 1067.29 438.573C896.18 278.079 791.045 559.346 657.03 441.995C523.014 324.644 435.082 568.829 302.232 444.955C169.381 321.08 83.2503 538.874 -26.4662 447.696L-26.8041 277.532L1502.06 265.174L1502.06 447.696Z" fill="#8704BF"/>
<rect x="-27" y="149" width="1530" height="194" fill="#8704BF"/>
</g>
</svg>
