<svg width="1920" height="504" viewBox="0 0 1920 504" fill="none" xmlns="http://www.w3.org/2000/svg">
<path d="M-0.83374 46.2113C195.166 245.653 370.166 -123.979 578.166 46.2113C786.166 216.402 918.166 -78.3078 1081.17 46.2113C1244.17 170.73 1354.67 -85.1544 1516.17 46.2113C1677.67 177.577 1785.67 -50.5845 1919.17 46.2113V360H-0.83374V46.2113Z" fill="#FFEC40"/>
<path d="M1924.76 443.114C1726.14 236.977 1595.41 618.662 1385 443.114C1174.59 267.566 1035.81 575.261 871 446.917C706.191 318.573 567.547 582.41 404.183 446.917C240.819 311.425 134.417 550.151 -0.517874 450.441L-3.34254 123.421L1924.76 123.422L1924.76 443.114Z" fill="#FFEC40"/>
</svg>
