<svg width="30" height="30" viewBox="0 0 30 30" fill="none" xmlns="http://www.w3.org/2000/svg">
<path d="M0.629406 0.629422C0.828416 0.429908 1.06483 0.271616 1.32511 0.163612C1.58539 0.0556076 1.86442 1.52588e-05 2.14622 1.52588e-05C2.42802 1.52588e-05 2.70705 0.0556076 2.96733 0.163612C3.22761 0.271616 3.46402 0.429908 3.66303 0.629422L15.0006 11.9712L26.3381 0.629422C26.5373 0.430231 26.7738 0.272224 27.034 0.164423C27.2943 0.0566217 27.5732 0.00113694 27.8549 0.00113694C28.1366 0.00113694 28.4155 0.0566217 28.6758 0.164423C28.9361 0.272224 29.1725 0.430231 29.3717 0.629422C29.5709 0.828612 29.7289 1.06509 29.8367 1.32534C29.9445 1.5856 30 1.86454 30 2.14623C30 2.42793 29.9445 2.70687 29.8367 2.96713C29.7289 3.22738 29.5709 3.46386 29.3717 3.66305L18.0299 15.0006L29.3717 26.3381C29.5709 26.5373 29.7289 26.7738 29.8367 27.034C29.9445 27.2943 30 27.5732 30 27.8549C30 28.1366 29.9445 28.4156 29.8367 28.6758C29.7289 28.9361 29.5709 29.1725 29.3717 29.3717C29.1725 29.5709 28.9361 29.7289 28.6758 29.8367C28.4155 29.9445 28.1366 30 27.8549 30C27.5732 30 27.2943 29.9445 27.034 29.8367C26.7738 29.7289 26.5373 29.5709 26.3381 29.3717L15.0006 18.0299L3.66303 29.3717C3.46384 29.5709 3.22737 29.7289 2.96711 29.8367C2.70686 29.9445 2.42792 30 2.14622 30C1.86452 30 1.58558 29.9445 1.32533 29.8367C1.06507 29.7289 0.828597 29.5709 0.629406 29.3717C0.430216 29.1725 0.272209 28.9361 0.164408 28.6758C0.0566064 28.4156 0.00112169 28.1366 0.00112169 27.8549C0.00112169 27.5732 0.0566064 27.2943 0.164408 27.034C0.272209 26.7738 0.430216 26.5373 0.629406 26.3381L11.9712 15.0006L0.629406 3.66305C0.429893 3.46404 0.271601 3.22762 0.163596 2.96734C0.0555924 2.70706 0 2.42803 0 2.14623C0 1.86444 0.0555924 1.58541 0.163596 1.32513C0.271601 1.06485 0.429893 0.828431 0.629406 0.629422Z" fill="#FFEC40"/>
</svg>
