<svg width="635" height="528" viewBox="0 0 635 528" fill="none" xmlns="http://www.w3.org/2000/svg">
<mask id="mask0_369_1916" style="mask-type:alpha" maskUnits="userSpaceOnUse" x="0" y="0" width="635" height="528">
<rect width="635" height="528" fill="#C4C4C4"/>
</mask>
<g mask="url(#mask0_369_1916)">
<g filter="url(#filter0_d_369_1916)">
<path d="M1194.58 478.819C1070.17 309.791 961.468 628.087 829.622 484.229C697.776 340.372 637 583 512.571 488.929C388.142 394.859 346 566 238.382 492.994C130.764 419.988 68.9318 578.436 -15.6365 496.759L-17.0003 227.94L1193.21 210L1194.58 478.819Z" fill="#FFEC40"/>
</g>
<g filter="url(#filter1_d_369_1916)">
<path d="M-172.787 29.252C-47.8801 152.643 -50.0042 -26.3873 89.609 55.7474C229.222 137.882 255.5 -13.5 360.763 54.4347C466.026 122.369 512.5 -13.5 617.724 53.1906C722.949 119.881 758.393 -15.4867 827.676 52.1742L826.514 278.114L-174.874 282.962L-172.787 29.252Z" fill="#FFEC40"/>
</g>
</g>
<defs>
<filter id="filter0_d_369_1916" x="-20.0004" y="210" width="1217.58" height="318.707" filterUnits="userSpaceOnUse" color-interpolation-filters="sRGB">
<feFlood flood-opacity="0" result="BackgroundImageFix"/>
<feColorMatrix in="SourceAlpha" type="matrix" values="0 0 0 0 0 0 0 0 0 0 0 0 0 0 0 0 0 0 127 0" result="hardAlpha"/>
<feOffset dy="3"/>
<feGaussianBlur stdDeviation="1.5"/>
<feComposite in2="hardAlpha" operator="out"/>
<feColorMatrix type="matrix" values="0 0 0 0 0 0 0 0 0 0 0 0 0 0 0 0 0 0 0.2 0"/>
<feBlend mode="normal" in2="BackgroundImageFix" result="effect1_dropShadow_369_1916"/>
<feBlend mode="normal" in="SourceGraphic" in2="effect1_dropShadow_369_1916" result="shape"/>
</filter>
<filter id="filter1_d_369_1916" x="-178.874" y="21.252" width="1010.55" height="261.71" filterUnits="userSpaceOnUse" color-interpolation-filters="sRGB">
<feFlood flood-opacity="0" result="BackgroundImageFix"/>
<feColorMatrix in="SourceAlpha" type="matrix" values="0 0 0 0 0 0 0 0 0 0 0 0 0 0 0 0 0 0 127 0" result="hardAlpha"/>
<feOffset dy="-4"/>
<feGaussianBlur stdDeviation="2"/>
<feComposite in2="hardAlpha" operator="out"/>
<feColorMatrix type="matrix" values="0 0 0 0 0 0 0 0 0 0 0 0 0 0 0 0 0 0 0.25 0"/>
<feBlend mode="normal" in2="BackgroundImageFix" result="effect1_dropShadow_369_1916"/>
<feBlend mode="normal" in="SourceGraphic" in2="effect1_dropShadow_369_1916" result="shape"/>
</filter>
</defs>
</svg>
